<svg xmlns="http://www.w3.org/2000/svg" data-name="Layer 1" viewBox="0 0 512 512" id="electricity-bill"><path fill="#fddd5a" d="M424.5 176A168.5 168.5 0 0 0 258.039 7.512C164.847 6.407 87.938 81.997 87.502 175.194a168.471 168.471 0 0 0 91.19 150.553A51.876 51.876 0 0 1 207 371.737v.763h98v-1.242a51.08 51.08 0 0 1 27.972-45.338A168.475 168.475 0 0 0 424.5 176Z"></path><path fill="#fed030" d="M258.039 7.512a168.362 168.362 0 0 0-24.447 1.497 168.528 168.528 0 0 1 54.38 316.911A51.08 51.08 0 0 0 260 371.258v1.242h45v-1.242a51.08 51.08 0 0 1 27.972-45.338A168.518 168.518 0 0 0 258.04 7.512Z"></path><path fill="#aeadb3" d="M266.858 504.5h-21.716a30 30 0 0 1-28.253-19.91L209 462.5h94l-7.89 22.09a30 30 0 0 1-28.252 19.91Z"></path><path fill="#8b8893" d="m273 462.5-7.89 22.09A29.99 29.99 0 0 1 241 504.198a30.012 30.012 0 0 0 4.142.302h21.716a30 30 0 0 0 28.253-19.91L303 462.5Z"></path><rect width="160.959" height="38.065" x="175.521" y="352.903" fill="#787681" rx="17.5"></rect><path fill="#57565c" d="M318.98 352.903h-45a17.5 17.5 0 0 1 17.5 17.5v3.065a17.5 17.5 0 0 1-17.5 17.5h45a17.5 17.5 0 0 0 17.5-17.5v-3.065a17.5 17.5 0 0 0-17.5-17.5Z"></path><rect width="160.959" height="38.065" x="175.521" y="390.968" fill="#aeadb3" rx="17.5"></rect><path fill="#8b8893" d="M318.98 390.968h-45a17.5 17.5 0 0 1 17.5 17.5v3.064a17.5 17.5 0 0 1-17.5 17.5h45a17.5 17.5 0 0 0 17.5-17.5v-3.064a17.5 17.5 0 0 0-17.5-17.5Z"></path><rect width="160.959" height="38.065" x="175.521" y="429.032" fill="#787681" rx="17.5"></rect><path fill="#57565c" d="M318.98 429.032h-45a17.5 17.5 0 0 1 17.5 17.5v3.065a17.5 17.5 0 0 1-17.5 17.5h45a17.5 17.5 0 0 0 17.5-17.5v-3.065a17.5 17.5 0 0 0-17.5-17.5Z"></path><path fill="#f9a242" d="m204.056 166.118 34.951 30.49a4 4 0 0 1 1.05 4.583l-31.88 74.765a4 4 0 0 0 6.291 4.598l93.479-80.633a4 4 0 0 0 .234-5.839l-38.392-38.888a4 4 0 0 1-.87-4.287l28.984-72.943a4 4 0 0 0-6.532-4.32l-87.499 86.617a4 4 0 0 0 .184 5.857Z"></path><path fill="#f48a31" d="m308.18 194.082-38.39-38.888a4 4 0 0 1-.872-4.288l28.985-72.942a4 4 0 0 0-6.532-4.32l-35.856 35.495-16.597 41.767a4 4 0 0 0 .871 4.288l38.392 38.888a4 4 0 0 1-.234 5.84l-59.078 50.959-10.693 25.075a4 4 0 0 0 6.292 4.598l93.479-80.633a4 4 0 0 0 .234-5.839Z"></path><path fill="#3c3b41" d="m276.732 151.551 28.14-70.816a11.5 11.5 0 0 0-18.777-12.42l-87.498 86.615a11.499 11.499 0 0 0 .53 16.84h-.001l33.034 28.818-30.884 72.426a11.495 11.495 0 0 0 18.091 13.22l93.48-80.634a11.5 11.5 0 0 0 .67-16.787Zm-55.74 113.472 25.964-60.89a11.475 11.475 0 0 0-3.019-13.177l-32.113-28.014 72.927-72.19-22.804 57.386a11.503 11.503 0 0 0 2.505 12.325l35.762 36.225ZM336.4 332.59a175.997 175.997 0 1 0-161.155-.178 45.293 45.293 0 0 1 15.487 13.1 25.03 25.03 0 0 0-22.711 24.891v3.065a24.914 24.914 0 0 0 7.168 17.5 24.914 24.914 0 0 0-7.168 17.5v3.064a24.914 24.914 0 0 0 7.168 17.5 24.914 24.914 0 0 0-7.168 17.5v3.065a25.028 25.028 0 0 0 25 25h12.333l4.472 12.514A37.571 37.571 0 0 0 245.14 512h21.72a37.57 37.57 0 0 0 35.313-24.887l4.473-12.517h12.333a25.028 25.028 0 0 0 25-25v-3.065a24.914 24.914 0 0 0-7.168-17.5 24.914 24.914 0 0 0 7.168-17.5v-3.064a24.914 24.914 0 0 0-7.168-17.5 24.914 24.914 0 0 0 7.168-17.5v-3.065a25.03 25.03 0 0 0-22.87-24.903 44.503 44.503 0 0 1 15.291-12.91Zm-48.353 149.48A22.541 22.541 0 0 1 266.86 497h-21.72a22.542 22.542 0 0 1-21.188-14.934l-2.669-7.47h69.434Zm40.932-32.473a10.011 10.011 0 0 1-10 10H193.02a10.011 10.011 0 0 1-10-10v-3.065a10.011 10.011 0 0 1 10-10h125.96a10.011 10.011 0 0 1 10 10Zm0-38.065a10.011 10.011 0 0 1-10 10H193.02a10.011 10.011 0 0 1-10-10v-3.064a10.011 10.011 0 0 1 10-10h125.96a10.011 10.011 0 0 1 10 10Zm0-41.129v3.065a10.011 10.011 0 0 1-10 10H193.02a10.011 10.011 0 0 1-10-10v-3.065a10.011 10.011 0 0 1 10-10h125.96a10.011 10.011 0 0 1 10 10Zm-25.364-25h-95.38a59.997 59.997 0 0 0-26.098-26.314 161.005 161.005 0 1 1 147.4.164 59.184 59.184 0 0 0-25.922 26.15Z"></path></svg>